<svg xmlns="http://www.w3.org/2000/svg" width="20.901" height="27.439" viewBox="0 0 20.901 27.439"><defs><style>.a{fill:#3c3c3c;}</style></defs><path class="a" d="M81.665,6.666,75.234.236A.8.8,0,0,0,74.666,0H63.412A2.414,2.414,0,0,0,61,2.412V25.027a2.414,2.414,0,0,0,2.412,2.412H79.489A2.414,2.414,0,0,0,81.9,25.027V7.235A.811.811,0,0,0,81.665,6.666Zm-6.2-3.922,3.686,3.686H76.274a.8.8,0,0,1-.8-.8Zm4.019,23.087H63.412a.8.8,0,0,1-.8-.8V2.412a.8.8,0,0,1,.8-.8h10.45V5.627a2.414,2.414,0,0,0,2.412,2.412h4.019V25.027A.8.8,0,0,1,79.489,25.831Z" transform="translate(-61 0)"/><path class="a" d="M163.14,212H151.934c-.516,0-.934.292-.934.652s.418.652.934.652H163.14c.516,0,.934-.292.934-.652S163.656,212,163.14,212Z" transform="translate(-147.087 -200.505)"/><path class="a" d="M163.14,272H151.934c-.516,0-.934.292-.934.652s.418.652.934.652H163.14c.516,0,.934-.292.934-.652S163.656,272,163.14,272Z" transform="translate(-147.087 -257.252)"/><path class="a" d="M163.14,332H151.934c-.516,0-.934.292-.934.652s.418.652.934.652H163.14c.516,0,.934-.292.934-.652S163.656,332,163.14,332Z" transform="translate(-147.087 -313.999)"/><path class="a" d="M156.87,392h-5.218a.652.652,0,1,0,0,1.3h5.218a.652.652,0,1,0,0-1.3Z" transform="translate(-145.608 -370.745)"/></svg>