<svg xmlns="http://www.w3.org/2000/svg" width="24.297" height="31.574" viewBox="0 0 24.297 31.574"><defs><style>.a{fill:#eee;}.b{fill:#3c3c3c;}.c{fill:#0077fb;}</style></defs><g transform="translate(-59)"><path class="a" d="M132.617,27.092a7.094,7.094,0,0,1,4.9-6.747,7.092,7.092,0,1,0,0,13.494A7.094,7.094,0,0,1,132.617,27.092Z" transform="translate(-64.969 -18.767)"/><path class="b" d="M82.064,31.574A1.233,1.233,0,0,1,80.83,30.34a8.767,8.767,0,0,0-8.757-8.757h-1.85a8.767,8.767,0,0,0-8.757,8.757,1.233,1.233,0,1,1-2.467,0A11.236,11.236,0,0,1,70.223,19.117h1.85A11.236,11.236,0,0,1,83.3,30.34,1.233,1.233,0,0,1,82.064,31.574ZM79.35,8.325a8.325,8.325,0,1,0-8.325,8.325A8.335,8.335,0,0,0,79.35,8.325Zm-2.467,0a5.858,5.858,0,1,1-5.858-5.858A5.865,5.865,0,0,1,76.884,8.325Z"/><path class="c" d="M160.228,384.384a1.232,1.232,0,0,1-.619-.167l-5-2.9a1.233,1.233,0,0,1-.433-1.711l1.85-3.022a1.233,1.233,0,1,1,2.1,1.288l-1.191,1.945,3.291,1.91,3.376-1.912-1.219-1.927a1.233,1.233,0,0,1,2.085-1.319l1.912,3.022a1.233,1.233,0,0,1-.435,1.733l-5.118,2.9A1.233,1.233,0,0,1,160.228,384.384Z" transform="translate(-89.142 -352.811)"/></g></svg>