<svg xmlns="http://www.w3.org/2000/svg" width="18" height="18" viewBox="0 0 18 18"><defs><style>.a{fill:#007cfb;}</style></defs><path class="a" d="M279,280.059a1.408,1.408,0,0,0,1.406,1.406h1.652a1.408,1.408,0,0,0,1.406-1.406v-1.652A1.408,1.408,0,0,0,282.059,277h-1.652A1.408,1.408,0,0,0,279,278.406Zm1.406-1.652h1.652v1.652h-1.653Z" transform="translate(-269.191 -267.262)"/><circle class="a" cx="0.5" cy="0.5" r="0.5" transform="translate(13 7)"/><circle class="a" cx="0.5" cy="0.5" r="0.5" transform="translate(10 7)"/><path class="a" d="M17.3,12.375a.7.7,0,0,0,.7-.7V4.219a2.816,2.816,0,0,0-2.812-2.812h-.914V.7a.7.7,0,0,0-1.406,0v.7h-3.2V.7A.7.7,0,0,0,8.262.7v.7H5.1V.7A.7.7,0,0,0,3.691.7v.7H2.813A2.816,2.816,0,0,0,0,4.219V15.188A2.816,2.816,0,0,0,2.813,18H15.188A2.816,2.816,0,0,0,18,15.188a.7.7,0,0,0-1.406,0,1.408,1.408,0,0,1-1.406,1.406H2.813a1.408,1.408,0,0,1-1.406-1.406V4.219A1.408,1.408,0,0,1,2.813,2.813h.879v.7a.7.7,0,0,0,1.406,0v-.7H8.262v.7a.7.7,0,0,0,1.406,0v-.7h3.2v.7a.7.7,0,0,0,1.406,0v-.7h.914a1.408,1.408,0,0,1,1.406,1.406v7.453A.7.7,0,0,0,17.3,12.375Z"/><circle class="a" cx="0.5" cy="0.5" r="0.5" transform="translate(4 13)"/><circle class="a" cx="0.5" cy="0.5" r="0.5" transform="translate(4 7)"/><circle class="a" cx="0.5" cy="0.5" r="0.5" transform="translate(4 10)"/><circle class="a" cx="0.5" cy="0.5" r="0.5" transform="translate(7 10)"/><circle class="a" cx="0.5" cy="0.5" r="0.5" transform="translate(7 7)"/><circle class="a" cx="0.5" cy="0.5" r="0.5" transform="translate(7 13)"/></svg>