<svg xmlns="http://www.w3.org/2000/svg" width="84" height="84" viewBox="0 0 84 84"><defs><style>.a,.b,.e{fill:#fff;}.b{stroke:#344154;stroke-linecap:round;stroke-width:2px;stroke-dasharray:4;}.c{fill:#007bf9;}.d{fill:#4da556;}.e{stroke:#fff;}.f{stroke:none;}.g{fill:none;}</style></defs><circle class="a" cx="42" cy="42" r="42"/><g class="b" transform="translate(25 25)"><rect class="f" width="34" height="34"/><rect class="g" x="1" y="1" width="32" height="32"/></g><rect class="c" width="12" height="12" transform="translate(52 20)"/><rect class="c" width="12" height="12" transform="translate(20 20)"/><rect class="c" width="12" height="12" transform="translate(20 51)"/><rect class="c" width="12" height="12" transform="translate(52 51)"/><g transform="translate(46 42)"><g transform="translate(-1140 -1246)"><rect class="d" width="26" height="26" rx="13" transform="translate(1140 1246)"/></g><g transform="translate(6.98 8.075)"><g transform="translate(0 0)"><path class="e" d="M114.188,136.958a.764.764,0,0,0-1.062,0h0l-7.1,7.1-2.517-2.517a.764.764,0,1,0-1.1,1.062l.019.019,3.058,3.058a.764.764,0,0,0,1.081,0l7.645-7.645A.764.764,0,0,0,114.188,136.958Z" transform="translate(-102.19 -136.743)"/></g></g></g></svg>