<svg xmlns="http://www.w3.org/2000/svg" width="21.365" height="21.365" viewBox="0 0 21.365 21.365"><g transform="translate(0)"><path d="M8.234,7.122H1.558A1.56,1.56,0,0,1,0,5.564V1.558A1.559,1.559,0,0,1,1.558,0H8.234A1.56,1.56,0,0,1,9.792,1.558V5.564A1.56,1.56,0,0,1,8.234,7.122ZM1.558,1.335a.223.223,0,0,0-.222.222V5.564a.223.223,0,0,0,.222.223H8.234a.223.223,0,0,0,.223-.223V1.558a.223.223,0,0,0-.223-.222Zm0,0" transform="translate(0 0)"/><path d="M8.234,225.795H1.558A1.559,1.559,0,0,1,0,224.237V214.89a1.56,1.56,0,0,1,1.558-1.558H8.234a1.56,1.56,0,0,1,1.558,1.558v9.347A1.559,1.559,0,0,1,8.234,225.795ZM1.558,214.667a.223.223,0,0,0-.222.223v9.347a.223.223,0,0,0,.222.222H8.234a.223.223,0,0,0,.223-.222V214.89a.223.223,0,0,0-.223-.223Zm0,0" transform="translate(0 -204.43)"/><path d="M285.566,348.454H278.89a1.56,1.56,0,0,1-1.558-1.558V342.89a1.56,1.56,0,0,1,1.558-1.558h6.676a1.56,1.56,0,0,1,1.558,1.558V346.9A1.56,1.56,0,0,1,285.566,348.454Zm-6.676-5.786a.223.223,0,0,0-.223.223V346.9a.223.223,0,0,0,.223.222h6.676a.223.223,0,0,0,.223-.222V342.89a.223.223,0,0,0-.223-.223Zm0,0" transform="translate(-265.76 -327.089)"/><path d="M285.566,12.463H278.89a1.56,1.56,0,0,1-1.558-1.558V1.558A1.56,1.56,0,0,1,278.89,0h6.676a1.56,1.56,0,0,1,1.558,1.558V10.9A1.56,1.56,0,0,1,285.566,12.463ZM278.89,1.335a.223.223,0,0,0-.223.222V10.9a.223.223,0,0,0,.223.223h6.676a.223.223,0,0,0,.223-.223V1.558a.223.223,0,0,0-.223-.222Zm0,0" transform="translate(-265.76 0)"/></g></svg>