<svg xmlns="http://www.w3.org/2000/svg" width="26" height="19.544" viewBox="0 0 26 19.544"><defs><style>.a{fill:#0077fb;}</style></defs><g transform="translate(-0.13)"><g transform="translate(6.239 0)"><g transform="translate(0)"><path class="a" d="M149.626,13.49a1.1,1.1,0,0,0-1.534,0l-3.637,3.635V6.1a1.1,1.1,0,1,0-2.208,0V17.125l-3.635-3.635a1.1,1.1,0,0,0-1.561,1.561l5.519,5.519a1.1,1.1,0,0,0,1.561,0l0,0,5.519-5.519A1.1,1.1,0,0,0,149.626,13.49Z" transform="translate(-136.742 -5)"/></g></g><rect class="a" width="26" height="2" rx="1" transform="translate(0.13 17.544)"/></g></svg>