<svg xmlns="http://www.w3.org/2000/svg" width="22.135" height="15.132" viewBox="0 0 22.135 15.132"><defs><style>.a{fill:#3c3c3c;}</style></defs><g transform="translate(0 -81)"><g transform="translate(0 82.988)"><g transform="translate(0 0)"><path class="a" d="M97.641,158.577l-5.09-5.156,4.521-2.222a.737.737,0,0,0,.344-1.082,1,1,0,0,0-1.256-.3l-9.366,4.6-9.366-4.6a1,1,0,0,0-1.256.3.737.737,0,0,0,.344,1.082l4.521,2.222-5.09,5.156a.72.72,0,0,0,.1,1.118,1.026,1.026,0,0,0,1.3-.09l5.315-5.384,3.674,1.806a1.051,1.051,0,0,0,.913,0l3.674-1.806,5.315,5.384a1.026,1.026,0,0,0,1.3.09A.72.72,0,0,0,97.641,158.577Z" transform="translate(-75.726 -149.716)"/></g></g><g transform="translate(0 81)"><path class="a" d="M20.19,81H1.945A1.948,1.948,0,0,0,0,82.945V94.186a1.948,1.948,0,0,0,1.945,1.945H20.19a1.948,1.948,0,0,0,1.945-1.945V82.945A1.948,1.948,0,0,0,20.19,81Zm.648,13.186a.649.649,0,0,1-.648.648H1.945a.649.649,0,0,1-.648-.648V82.945a.649.649,0,0,1,.648-.648H20.19a.649.649,0,0,1,.648.648Z" transform="translate(0 -81)"/></g></g></svg>