<svg xmlns="http://www.w3.org/2000/svg" width="23.922" height="50" viewBox="0 0 23.922 50"><defs><style>.a{fill:#f5474d;}</style></defs><path class="a" d="M329.9,325.388V312.825c-3.52,2.741-7.7,2.788-11.694,3.514a14.2,14.2,0,0,0-6.168,2.587c3.377.086,5.987,1.649,8.675,3.044,1.934,1,3.909,1.946,5.927,2.763A17.854,17.854,0,0,0,329.9,325.388Z" transform="translate(-312.036 -308.458)"/><path class="a" d="M283.507,338.226c-1.445-.008-2.877-.163-3.219,1.725h8.191c-.33-1.941-1.807-1.7-3.21-1.739V337.03q0-8.716,0-17.431c0-8.443-.008-16.886.02-25.328a2.548,2.548,0,0,1,.489-1.332,1.906,1.906,0,0,0-.145-2.513,1.816,1.816,0,0,0-2.6,2.533,2.3,2.3,0,0,1,.451,1.245c.029,5.588.019,11.176.019,16.765q0,13,0,25.992Z" transform="translate(-264.558 -289.952)"/></svg>