<svg xmlns="http://www.w3.org/2000/svg" width="31.997" height="37.149" viewBox="0 0 31.997 37.149"><defs><style>.a{fill:#f5f5f5;}.b{fill:#3c3c3c;}.c{fill:#0077fb;}</style></defs><path class="a" d="M81.9,76.991a8.9,8.9,0,0,1-2.177.265c-3.206,0-5.8-1.624-5.8-3.628S76.513,70,79.719,70a8.9,8.9,0,0,1,2.177.265c-2.127.538-3.628,1.841-3.628,3.363S79.769,76.453,81.9,76.991ZM60.854,85.382c0-1.522,1.5-2.825,3.628-3.363a8.9,8.9,0,0,0-2.177-.265c-3.206,0-5.8,1.624-5.8,3.628s2.6,3.628,5.8,3.628a8.9,8.9,0,0,0,2.177-.265C62.355,88.207,60.854,86.9,60.854,85.382Z" transform="translate(-54.977 -64.921)"/><path class="b" d="M60.24,60.158c-4.069,0-7.256-2.231-7.256-5.079S56.172,50,60.24,50,67.5,52.231,67.5,55.079,64.309,60.158,60.24,60.158Zm0-7.256a6.473,6.473,0,0,0-3.335.842,1.805,1.805,0,0,0-1.018,1.335,1.805,1.805,0,0,0,1.018,1.335,7.027,7.027,0,0,0,6.671,0,1.805,1.805,0,0,0,1.018-1.335,1.805,1.805,0,0,0-1.018-1.335A6.473,6.473,0,0,0,60.24,52.9Zm6.583,28.6a1.451,1.451,0,1,0-1.7-2.35,9.14,9.14,0,0,1-9.907,0,1.451,1.451,0,1,0-1.7,2.35,11.989,11.989,0,0,0,13.311,0Zm0-5.8a1.451,1.451,0,1,0-1.7-2.35,9.14,9.14,0,0,1-9.907,0,1.451,1.451,0,1,0-1.7,2.35,11.989,11.989,0,0,0,13.311,0Zm0-5.877a1.451,1.451,0,1,0-1.7-2.35,9.14,9.14,0,0,1-9.907,0,1.451,1.451,0,1,0-1.7,2.35,11.989,11.989,0,0,0,13.311,0Zm0-5.877a1.451,1.451,0,1,0-1.7-2.35,9.14,9.14,0,0,1-9.907,0,1.451,1.451,0,1,0-1.7,2.35,11.989,11.989,0,0,0,13.311,0Zm-24,7.967c-4.069,0-7.256-2.231-7.256-5.079s3.187-5.079,7.256-5.079,7.256,2.231,7.256,5.079S46.9,71.912,42.827,71.912Zm0-7.256a6.473,6.473,0,0,0-3.335.842,1.384,1.384,0,0,0,0,2.669,7.027,7.027,0,0,0,6.671,0,1.384,1.384,0,0,0,0-2.669A6.473,6.473,0,0,0,42.827,64.656ZM49.41,81.5a1.451,1.451,0,1,0-1.7-2.35,9.14,9.14,0,0,1-9.907,0,1.451,1.451,0,1,0-1.7,2.35,11.989,11.989,0,0,0,13.311,0Zm0-5.8a1.451,1.451,0,1,0-1.7-2.35,9.14,9.14,0,0,1-9.907,0,1.451,1.451,0,1,0-1.7,2.35,11.989,11.989,0,0,0,13.311,0Z" transform="translate(-35.499 -46.372)"/><path class="c" d="M51.952,6.675a1.451,1.451,0,0,1-1.037-2.467l2.863-2.923.009-.009a4.337,4.337,0,0,1,6.146,0L62.847,4.2a1.451,1.451,0,0,1-2.055,2.049L57.878,3.325a1.435,1.435,0,0,0-2.031,0L52.989,6.239a1.447,1.447,0,0,1-1.037.436Zm6.24,5.079V7.183a1.451,1.451,0,1,0-2.9,0v4.571a1.451,1.451,0,1,0,2.9,0Z" transform="translate(-49.413)"/></svg>