<svg xmlns="http://www.w3.org/2000/svg" width="38.583" height="49.109" viewBox="0 0 38.583 49.109"><defs><style>.a{fill:#4e4e4e;}</style></defs><g transform="translate(0 0)"><path class="a" d="M80.709,6.434H76.266V4.447c0-.643-.7-.935-1.345-.935H71.473A5.229,5.229,0,0,0,66.27,0a5.32,5.32,0,0,0-5.2,3.508H57.677c-.643,0-1.286.292-1.286.935V6.434H51.948a4.969,4.969,0,0,0-4.911,4.735v33.5a4.7,4.7,0,0,0,4.911,4.443H80.709a4.7,4.7,0,0,0,4.911-4.443V11.17A4.969,4.969,0,0,0,80.709,6.434ZM58.729,5.85h3.215A1.286,1.286,0,0,0,63.055,4.8,3.391,3.391,0,0,1,66.27,2.167,3.332,3.332,0,0,1,69.427,4.8,1.286,1.286,0,0,0,70.6,5.85h3.332v4.677h-15.2ZM83.281,44.666a2.371,2.371,0,0,1-2.572,2.1H51.948a2.371,2.371,0,0,1-2.572-2.1V11.17a2.631,2.631,0,0,1,2.572-2.4H56.39v2.981a1.228,1.228,0,0,0,1.286,1.111H74.922a1.286,1.286,0,0,0,1.345-1.111V8.773h4.443a2.631,2.631,0,0,1,2.572,2.4v33.5Z" transform="translate(-47.037 0)"/><path class="a" d="M108.314,230.676a1.169,1.169,0,0,0-1.637-.058l-3.741,3.566-1.578-1.637a1.169,1.169,0,0,0-1.637-.058,1.228,1.228,0,0,0,0,1.7l2.4,2.455a1.052,1.052,0,0,0,.818.351,1.169,1.169,0,0,0,.818-.351l4.56-4.326a1.111,1.111,0,0,0,.067-1.569Q108.349,230.708,108.314,230.676Z" transform="translate(-93.524 -204.541)"/><path class="a" d="M213.163,256.034H199.717a1.169,1.169,0,1,0,0,2.338h13.445a1.169,1.169,0,0,0,0-2.338Z" transform="translate(-181.595 -227.385)"/><path class="a" d="M108.314,147.084a1.169,1.169,0,0,0-1.637-.058l-3.741,3.566-1.578-1.637a1.169,1.169,0,0,0-1.637-.058,1.228,1.228,0,0,0,0,1.7l2.4,2.455a1.052,1.052,0,0,0,.818.351,1.169,1.169,0,0,0,.818-.351l4.56-4.326a1.111,1.111,0,0,0,.067-1.569Q108.349,147.116,108.314,147.084Z" transform="translate(-93.524 -130.303)"/><path class="a" d="M213.163,172.442H199.717a1.169,1.169,0,0,0,0,2.338h13.445a1.169,1.169,0,0,0,0-2.338Z" transform="translate(-181.595 -153.147)"/><path class="a" d="M108.314,314.267a1.169,1.169,0,0,0-1.637-.058l-3.741,3.566-1.578-1.637a1.169,1.169,0,0,0-1.637-.058,1.228,1.228,0,0,0,0,1.7l2.4,2.455a1.052,1.052,0,0,0,.818.351,1.169,1.169,0,0,0,.818-.351l4.56-4.326a1.111,1.111,0,0,0,.067-1.569Q108.349,314.3,108.314,314.267Z" transform="translate(-93.524 -278.779)"/><path class="a" d="M213.163,339.626H199.717a1.169,1.169,0,0,0,0,2.338h13.445a1.169,1.169,0,0,0,0-2.338Z" transform="translate(-181.595 -301.624)"/></g></svg>