<svg xmlns="http://www.w3.org/2000/svg" width="27.229" height="18.129" viewBox="0 0 27.229 18.129"><g transform="translate(0 -54.144)"><g transform="translate(0 54.144)"><path d="M26.43,163.329H24.821V149.7a.735.735,0,0,0-.8-.647H19.607a.735.735,0,0,0-.8.647v13.626H16.621V147.14a.735.735,0,0,0-.8-.647H11.408a.735.735,0,0,0-.8.647v16.189H8.422V149.018a.735.735,0,0,0-.8-.647H3.208a.735.735,0,0,0-.8.647v14.311H.8a.661.661,0,1,0,0,1.294H26.43a.661.661,0,1,0,0-1.294Zm-22.422,0V149.665H6.823v13.664Zm8.2,0V147.787h2.815v15.542Zm8.2,0V150.349h2.815v12.979Z" transform="translate(0 -146.493)"/></g></g></svg>