<svg xmlns="http://www.w3.org/2000/svg" width="84" height="84" viewBox="0 0 84 84"><defs><style>.a,.f{fill:#fff;}.b,.c{fill:none;stroke:#344154;stroke-linecap:round;stroke-width:1.405px;}.b{stroke-linejoin:round;}.c{stroke-miterlimit:10;}.d{fill:#007cfb;}.e{fill:#4da556;}.f{stroke:#fff;}</style></defs><circle class="a" cx="42" cy="42" r="42"/><g transform="translate(-1146 -449)"><g transform="translate(1169.405 470.78)"><path class="b" d="M301.164,633.43l1.454-7.278a7.149,7.149,0,0,1,2.459-4.11,5.879,5.879,0,0,1,2.429-1.271l6.193-1.8a1.349,1.349,0,0,0,.966-1.143l.284-2.459a10.645,10.645,0,0,1-3.646-5.729c-1.108-.1-1.956-1.334-1.956-2.889a2.8,2.8,0,0,1,1.658-2.835" transform="translate(-301.164 -593.603)"/><path class="b" d="M334.229,603.9a2.77,2.77,0,0,1,1.712,2.851c0,1.557-.852,2.791-1.962,2.889a10.6,10.6,0,0,1-3.645,5.729l.287,2.459a1.355,1.355,0,0,0,.967,1.144l6.214,1.8a5.863,5.863,0,0,1,2.41,1.264,7.183,7.183,0,0,1,2.136,2.99l2.083,8.815" transform="translate(-306.85 -593.6)"/><path class="c" d="M330.925,601.4s.514-10.3-8.743-10.3-8.793,10.315-8.793,10.315" transform="translate(-303.546 -591.106)"/><path class="c" d="M314.209,597.988a3.307,3.307,0,0,1,1.838-1.588,5.216,5.216,0,0,1,3.873.463c1.753.8,3.285,1.741,5.251,1.958a9,9,0,0,0,5.272-.859" transform="translate(-303.707 -592.098)"/><line class="c" x2="5.722" y2="5.932" transform="translate(12.915 25.193)"/><line class="c" x1="5.722" y2="5.932" transform="translate(18.636 25.193)"/><path class="d" d="M328.6,624.688l-5.293,5.606a1.479,1.479,0,0,1-2.108,0l-5.294-5.606-2.158.656,8.481,9.074.025-.023.024.023,8.481-9.074Z" transform="translate(-303.617 -597.652)"/></g><rect class="e" width="26" height="26" rx="13" transform="translate(1185 491)"/><g transform="translate(1191.98 499.075)"><path class="f" d="M114.188,136.958a.764.764,0,0,0-1.062,0h0l-7.1,7.1-2.517-2.517a.764.764,0,1,0-1.1,1.062l.019.019,3.058,3.058a.764.764,0,0,0,1.081,0l7.645-7.645A.764.764,0,0,0,114.188,136.958Z" transform="translate(-102.19 -136.743)"/></g></g></svg>