<svg xmlns="http://www.w3.org/2000/svg" width="22.119" height="22.119" viewBox="0 0 22.119 22.119"><g transform="translate(0)"><path d="M11.753,22.119H10.365a2.039,2.039,0,0,1-2.036-2.036v-.47a8.929,8.929,0,0,1-1.387-.576l-.333.333a2.036,2.036,0,0,1-2.88,0l-.981-.981a2.036,2.036,0,0,1,0-2.88l.333-.333a8.93,8.93,0,0,1-.576-1.387h-.47A2.039,2.039,0,0,1,0,11.753V10.365A2.039,2.039,0,0,1,2.036,8.329h.47a8.932,8.932,0,0,1,.576-1.387L2.749,6.61a2.036,2.036,0,0,1,0-2.88l.981-.981a2.036,2.036,0,0,1,2.88,0l.333.333a8.938,8.938,0,0,1,1.387-.576v-.47A2.038,2.038,0,0,1,10.365,0h1.388A2.038,2.038,0,0,1,13.79,2.036v.47a8.929,8.929,0,0,1,1.387.576l.333-.333a2.036,2.036,0,0,1,2.88,0l.981.981a2.036,2.036,0,0,1,0,2.88l-.333.333a8.93,8.93,0,0,1,.576,1.387h.47a2.039,2.039,0,0,1,2.036,2.036v1.388a2.039,2.039,0,0,1-2.036,2.036h-.47a8.932,8.932,0,0,1-.576,1.387l.333.333a2.036,2.036,0,0,1,0,2.88l-.981.981a2.036,2.036,0,0,1-2.88,0l-.333-.333a8.938,8.938,0,0,1-1.387.576v.47A2.038,2.038,0,0,1,11.753,22.119ZM7.159,17.676a7.638,7.638,0,0,0,1.98.822.648.648,0,0,1,.486.627v.957a.741.741,0,0,0,.74.74h1.388a.741.741,0,0,0,.74-.74v-.957a.648.648,0,0,1,.486-.627,7.638,7.638,0,0,0,1.98-.822.648.648,0,0,1,.788.1l.678.678a.74.74,0,0,0,1.046,0l.982-.982a.74.74,0,0,0,0-1.047l-.678-.678a.648.648,0,0,1-.1-.788,7.637,7.637,0,0,0,.822-1.98.648.648,0,0,1,.627-.486h.957a.741.741,0,0,0,.74-.74V10.365a.741.741,0,0,0-.74-.74h-.957a.648.648,0,0,1-.627-.486,7.638,7.638,0,0,0-.822-1.98.648.648,0,0,1,.1-.788l.678-.678a.74.74,0,0,0,0-1.047l-.982-.982a.74.74,0,0,0-1.047,0l-.678.678a.648.648,0,0,1-.788.1,7.638,7.638,0,0,0-1.98-.822.648.648,0,0,1-.486-.627V2.036a.741.741,0,0,0-.74-.74H10.365a.741.741,0,0,0-.74.74v.957a.648.648,0,0,1-.486.627,7.638,7.638,0,0,0-1.98.822.648.648,0,0,1-.788-.1l-.678-.678a.74.74,0,0,0-1.046,0l-.982.982a.74.74,0,0,0,0,1.047l.678.678a.648.648,0,0,1,.1.788,7.637,7.637,0,0,0-.822,1.98.648.648,0,0,1-.627.486H2.036a.741.741,0,0,0-.74.74v1.388a.741.741,0,0,0,.74.74h.957a.648.648,0,0,1,.627.486,7.639,7.639,0,0,0,.822,1.98.648.648,0,0,1-.1.788l-.678.678a.74.74,0,0,0,0,1.047l.982.982a.74.74,0,0,0,1.047,0l.678-.678A.651.651,0,0,1,7.159,17.676Z"/><path d="M149.413,154.225a4.813,4.813,0,1,1,4.813-4.813A4.818,4.818,0,0,1,149.413,154.225Zm0-8.329a3.517,3.517,0,1,0,3.517,3.517A3.52,3.52,0,0,0,149.413,145.9Z" transform="translate(-138.353 -138.353)"/></g></svg>