<svg xmlns="http://www.w3.org/2000/svg" width="18.323" height="20.847" viewBox="0 0 18.323 20.847"><defs><style>.a{fill:#0077fb;}</style></defs><g transform="translate(-31)"><g transform="translate(34.665)"><g transform="translate(0)"><path class="a" d="M126.5,0a5.5,5.5,0,1,0,5.5,5.5A5.5,5.5,0,0,0,126.5,0Zm0,9.772A4.275,4.275,0,1,1,130.772,5.5,4.28,4.28,0,0,1,126.5,9.772Z" transform="translate(-121 0)"/></g></g><g transform="translate(31 12.256)"><path class="a" d="M41.865,301H38.458A8.829,8.829,0,0,0,31,305.09v4.5H49.323v-4.5A8.831,8.831,0,0,0,41.865,301Zm6.237,7.37H32.222v-2.906a7.6,7.6,0,0,1,6.237-3.243h3.407a7.6,7.6,0,0,1,6.237,3.243Z" transform="translate(-31 -301)"/></g></g></svg>