<svg xmlns="http://www.w3.org/2000/svg" width="28" height="32" viewBox="0 0 28 32"><defs><style>.a{fill:#e2e5e7;}.b{fill:#b0b7bd;}.c{fill:#cad1d8;}.d{fill:#84bd5a;}.e{fill:#fff;}</style></defs><path class="a" d="M98,0a2.006,2.006,0,0,0-2,2V30a2.006,2.006,0,0,0,2,2h20a2.006,2.006,0,0,0,2-2V8l-8-8Z" transform="translate(-92)"/><path class="b" d="M354,8h6l-8-8V6A2.006,2.006,0,0,0,354,8Z" transform="translate(-332)"/><path class="c" d="M390,134l-6-6h6Z" transform="translate(-362 -120)"/><path class="d" d="M56,251a1,1,0,0,1-1,1H33a1,1,0,0,1-1-1V241a1,1,0,0,1,1-1H55a1,1,0,0,1,1,1Z" transform="translate(-32 -225)"/><g transform="translate(4.577 18.213)"><path class="e" d="M107.67,296.99l1.391-1.743c.416-.544,1.224.151.768.671-.479.568-.983,1.184-1.463,1.815L110,299.764a.525.525,0,1,1-.871.583l-1.472-1.887-1.447,1.928c-.408.583-1.312-.072-.856-.616l1.607-2.039c-.5-.632-.992-1.247-1.479-1.815a.517.517,0,1,1,.8-.654Z" transform="translate(-105.226 -294.816)"/><path class="e" d="M197.36,295.832a.5.5,0,0,1,.5-.488.488.488,0,0,1,.472.488v4.006h2.175a.528.528,0,1,1,0,1.047h-2.646a.483.483,0,0,1-.5-.487v-4.566Z" transform="translate(-191.602 -295.098)"/><path class="e" d="M270.639,292.861c.184-1.552,2.526-1.831,3.63-.983a.468.468,0,1,1-.512.783c-.592-.375-1.935-.551-2.1.279-.216,1.312,3.262.561,3.206,2.688-.056,2.031-3,2.078-4.1,1.167a.591.591,0,0,1-.112-.784.472.472,0,0,1,.712-.055c.655.447,2.343.783,2.462-.353C273.717,294.421,270.391,295.132,270.639,292.861Z" transform="translate(-260.214 -291.407)"/></g><path class="c" d="M115,417H96v1h19a1,1,0,0,0,1-1v-1A1,1,0,0,1,115,417Z" transform="translate(-92 -390)"/></svg>